<?xml version="1.0" standalone="no"?>
<!DOCTYPE svg PUBLIC "-//W3C//DTD SVG 20010904//EN"
 "http://www.w3.org/TR/2001/REC-SVG-20010904/DTD/svg10.dtd">
<svg version="1.0" xmlns="http://www.w3.org/2000/svg"
 width="192.000000pt" height="192.000000pt" viewBox="0 0 192.000000 192.000000"
 preserveAspectRatio="xMidYMid meet">
<metadata>
Created by potrace 1.14, written by Peter Selinger 2001-2017
</metadata>
<g transform="translate(0.000000,192.000000) scale(0.100000,-0.100000)"
fill="#000000" stroke="none">
<path d="M0 960 l0 -960 960 0 960 0 0 960 0 960 -960 0 -960 0 0 -960z m657
358 c23 -25 32 -45 36 -81 3 -31 13 -57 27 -72 14 -15 26 -45 31 -77 6 -35 16
-59 30 -71 15 -12 25 -35 30 -70 6 -33 16 -57 29 -67 14 -10 23 -35 30 -74 7
-41 17 -68 35 -86 14 -15 27 -40 28 -56 2 -27 -1 -29 -33 -29 -31 0 -35 3 -38
30 -2 17 -14 41 -27 55 -12 14 -26 36 -30 50 -4 14 -13 28 -19 32 -6 4 -89 8
-183 8 -160 0 -175 -2 -193 -20 -11 -11 -20 -28 -20 -39 0 -10 -8 -29 -18 -42
-10 -13 -23 -36 -30 -51 -9 -22 -18 -28 -42 -28 -39 0 -41 30 -4 67 17 17 28
42 33 75 5 27 17 59 29 71 11 12 23 34 26 50 3 15 8 38 11 52 3 13 15 33 26
44 13 12 23 39 28 76 6 41 14 62 29 74 14 10 25 34 31 64 5 27 18 58 30 71 11
12 21 31 21 42 0 27 8 34 40 34 16 0 37 -12 57 -32z m768 8 c27 -14 63 -27 78
-31 17 -3 31 -15 37 -30 5 -14 20 -39 32 -55 l22 -30 -22 -28 c-13 -15 -30
-43 -40 -62 -10 -19 -26 -48 -36 -63 -24 -36 -11 -67 37 -90 48 -23 54 -34 61
-107 8 -79 -12 -130 -57 -141 -15 -4 -49 -18 -75 -31 -44 -21 -59 -23 -232
-23 -170 0 -185 1 -184 18 0 9 1 170 2 357 l2 340 162 0 c152 0 166 -2 213
-24z"/>
<path d="M564 1161 c-40 -18 -42 -21 -53 -82 -6 -35 -20 -76 -31 -91 -24 -33
-26 -81 -4 -99 23 -19 201 -24 234 -7 20 11 26 22 28 61 3 39 -1 53 -22 78
-15 17 -26 43 -26 59 0 35 -17 82 -33 92 -19 12 -49 9 -93 -11z"/>
<path d="M1201 1280 c-63 -15 -76 -39 -76 -141 0 -86 1 -92 27 -114 56 -48
178 -46 255 3 72 47 73 48 73 108 0 67 -10 87 -58 118 -42 26 -162 41 -221 26z"/>
<path d="M1191 963 c-46 -23 -71 -67 -71 -126 0 -114 42 -147 187 -147 107 0
148 11 191 49 29 27 32 35 32 89 0 32 -6 65 -12 74 -7 9 -48 30 -91 47 -91 36
-180 41 -236 14z"/>
</g>
</svg>
